<svg xmlns="http://www.w3.org/2000/svg" viewBox="0 0 512 512">
  <!-- Tree icon optimized for favicon -->
  <defs>
    <style>
      .tree-trunk { fill: #8B4513; stroke: #1a1a1a; stroke-width: 12; }
      .tree-foliage { fill: #22c55e; stroke: #1a1a1a; stroke-width: 12; }
      .tree-shadow { fill: #16a34a; opacity: 0.6; }
    </style>
  </defs>
  
  <!-- Tree trunk -->
  <path class="tree-trunk" d="M 220 280 L 220 480 Q 220 490 230 490 L 282 490 Q 292 490 292 480 L 292 280 Z"/>
  
  <!-- Tree foliage shadow -->
  <ellipse class="tree-shadow" cx="280" cy="200" rx="140" ry="150"/>
  
  <!-- Tree foliage -->
  <path class="tree-foliage" d="
    M 256 40
    Q 200 60, 160 100
    Q 120 140, 110 190
    Q 100 240, 130 280
    Q 160 320, 200 330
    L 200 270
    Q 180 260, 170 240
    Q 160 220, 165 200
    Q 170 180, 190 170
    Q 200 100, 256 60
    Q 312 100, 322 170
    Q 342 180, 347 200
    Q 352 220, 342 240
    Q 332 260, 312 270
    L 312 330
    Q 352 320, 382 280
    Q 412 240, 402 190
    Q 392 140, 352 100
    Q 312 60, 256 40
    Z
  "/>
  
  <!-- Tree highlights -->
  <ellipse fill="#4ade80" opacity="0.4" cx="230" cy="150" rx="50" ry="60"/>
  <ellipse fill="#4ade80" opacity="0.3" cx="290" cy="180" rx="40" ry="50"/>
</svg>
